<?xml version="1.0" encoding="UTF-8" standalone="no"?>
<svg
   xmlns:dc="http://purl.org/dc/elements/1.1/"
   xmlns:cc="http://creativecommons.org/ns#"
   xmlns:rdf="http://www.w3.org/1999/02/22-rdf-syntax-ns#"
   xmlns:svg="http://www.w3.org/2000/svg"
   xmlns="http://www.w3.org/2000/svg"
   height="457.095"
   width="540.42133"
   version="1.1"
   viewBox="0 0 540.42133 457.09501"
   data-name="Ebene 1"
   id="Ebene_1">
  <metadata
     id="metadata207">
    <rdf:RDF>
      <cc:Work
         rdf:about="">
        <dc:format>image/svg+xml</dc:format>
        <dc:type
           rdf:resource="http://purl.org/dc/dcmitype/StillImage" />
        <dc:title>open-communication</dc:title>
      </cc:Work>
    </rdf:RDF>
  </metadata>
  <defs
     id="defs4">
    <style
       id="style2">.cls-1{opacity:0.38;}.cls-2,.cls-4,.cls-5,.cls-7{fill:none;}.cls-2{stroke:#1aa5b4;stroke-width:67.02px;}.cls-2,.cls-4{stroke-dasharray:21.45 13.4;}.cls-3{opacity:0.41;}.cls-4{stroke:#25acc4;stroke-width:48.47px;}.cls-5{stroke:#136d6d;stroke-linecap:round;stroke-linejoin:bevel;stroke-width:6.58px;}.cls-6{fill:#79cbc2;}.cls-7,.cls-8{stroke:#115552;stroke-miterlimit:10;stroke-width:1.2px;}.cls-8{fill:#fcfcfc;}.cls-9{fill:#136d6d;}.cls-10{font-size:36.32px;fill:#2e3f3e;font-family:Roboto;font-weight:700;letter-spacing:5px;}</style>
  </defs>
  <title
     id="title6">open-communication</title>
  <g
     transform="translate(-0.04766081,-0.00499753)"
     id="layer1">
    <g
       id="g1209">
      <g
         style="opacity:0.38000039"
         class="cls-1"
         id="g10">
        <path
           style="fill:none;stroke:#1aa5b4;stroke-width:67.01999664px;stroke-dasharray:21.45, 13.4"
           class="cls-2"
           d="m 230.37,298.76 q 0,-83.51 46.59,-136.83 46.59,-53.32 129.04,-53.32 82.82,0 129.75,53.14 46.93,53.14 46.93,137 V 306 q 0,84.2 -46.76,137.17 -46.76,52.97 -129.23,53 -82.82,0 -129.58,-53 -46.76,-53 -46.74,-137.17 v -7.25 z m 100.42,7.07 q 0,51 17.94,81.84 17.94,30.84 58,30.84 39,0 57.11,-31 18.11,-31 18.12,-81.67 v -7.24 q 0,-49.61 -18.29,-81 -18.29,-31.39 -57.67,-31.34 -39,0 -57.11,31.53 -18.11,31.53 -18.12,80.8 v 7.24 z"
           transform="translate(-155.36,-72.58)"
           id="path8" />
      </g>
      <g
         style="opacity:0.41000001"
         class="cls-3"
         id="g14">
        <path
           style="fill:none;stroke:#25acc4;stroke-width:48.47000122px;stroke-dasharray:21.45, 13.4"
           class="cls-4"
           d="m 619.37,283.54 q 0,79 -44.07,129.43 -44.07,50.43 -122.09,50.44 -78.34,0 -122.74,-50.27 -44.4,-50.27 -44.4,-129.6 v -6.86 q 0,-79.65 44.23,-129.76 44.23,-50.11 122.26,-50.1 78.35,0 122.58,50.11 44.23,50.11 44.23,129.76 v 6.86 z m -95,-6.69 q 0,-48.25 -17,-77.42 -17,-29.17 -54.84,-29.17 -36.88,0 -54,29.33 -17.12,29.33 -17.14,77.25 v 6.85 q 0,46.93 17.3,76.6 17.3,29.67 54.52,29.71 36.89,0 54,-29.83 17.11,-29.83 17.14,-76.43 v -6.85 z"
           transform="translate(-155.36,-72.58)"
           id="path12" />
      </g>
    </g>
  </g>
</svg>
