<?xml version="1.0" encoding="UTF-8" standalone="no"?>
<svg
   xmlns:dc="http://purl.org/dc/elements/1.1/"
   xmlns:cc="http://creativecommons.org/ns#"
   xmlns:rdf="http://www.w3.org/1999/02/22-rdf-syntax-ns#"
   xmlns:svg="http://www.w3.org/2000/svg"
   xmlns="http://www.w3.org/2000/svg"
   height="197.53033"
   width="540.42133"
   version="1.1"
   viewBox="0 0 540.42133 197.53034"
   data-name="Ebene 1"
   id="Ebene_1">
  <metadata
     id="metadata207">
    <rdf:RDF>
      <cc:Work
         rdf:about="">
        <dc:format>image/svg+xml</dc:format>
        <dc:type
           rdf:resource="http://purl.org/dc/dcmitype/StillImage" />
        <dc:title>open-communication</dc:title>
      </cc:Work>
    </rdf:RDF>
  </metadata>
  <defs
     id="defs4">
    <style
       id="style2">.cls-1{opacity:0.38;}.cls-2,.cls-4,.cls-5,.cls-7{fill:none;}.cls-2{stroke:#1aa5b4;stroke-width:67.02px;}.cls-2,.cls-4{stroke-dasharray:21.45 13.4;}.cls-3{opacity:0.41;}.cls-4{stroke:#25acc4;stroke-width:48.47px;}.cls-5{stroke:#136d6d;stroke-linecap:round;stroke-linejoin:bevel;stroke-width:6.58px;}.cls-6{fill:#79cbc2;}.cls-7,.cls-8{stroke:#115552;stroke-miterlimit:10;stroke-width:1.2px;}.cls-8{fill:#fcfcfc;}.cls-9{fill:#136d6d;}.cls-10{font-size:36.32px;fill:#2e3f3e;font-family:Roboto;font-weight:700;letter-spacing:5px;}</style>
  </defs>
  <title
     id="title6">open-communication</title>
  <path
     style="fill:none;stroke:#136d6d;stroke-width:6.57999992px;stroke-linecap:round;stroke-linejoin:bevel"
     id="path16"
     d="m 532.92234,56.022152 c -4.91,-4.54 -10.46,-0.74 -16.38,2.38 -5.92,3.12 -29.28,23.48 -38.58,28 -19.78,9.52 -17.47,6.75 -39.42,6.83 a 69.71,69.71 0 0 1 -7.23,-0.36 v -0.83 a 6.25,6.25 0 0 0 4.18,-1.79 l -19.86,-16.1 a 29,29 0 0 1 -8.6,-9.5 l -8.65,-14 c -3.8,-6.14 -5.91,-9 -6.68,-16.13 a 7.2,7.2 0 0 1 0.12,-2.76 13.13,13.13 0 0 1 1,-2.11 21.84,21.84 0 0 0 1.5,-4.58001 c 1,-4.12 1.82,-8.43 0.91,-12.569999 -0.91,-4.1400001 -3.94,-8.0900001 -8.12,-8.8100002 -3.2,-0.55 -8.34,-0.49 -11.3,0.8400001 -6.87,3.1 -15.87,7.0000001 -22.38,10.8499991 -3.24,1.89 -13.9,6.55 -17.25,7.4 -3.14,0.79 -9.46,2.58 -13.46,2.76 v 0 a 66.48,66.48 0 0 0 -7.81,-1.23 c -13.8,-1.57 -89.42,4.21001 -103.31,4.48001 -21.53,0.42 -76.45,9.64 -92.64,19.11 0,0 -14.81,8.78 -25.999996,22.56 a 242.52,242.52 0 0 1 -21.18,23.59 c -7.75,7.919998 -20,13.769998 -33.750005,30.999998 -13.75,17.23 -28.0699998,36.85 -30.1299998,44.77 -2.06,7.92 4.4799998,3.44 4.4799998,3.44 l 3.44,5 -3.23,2.9 c 0,0 -13.5999998,7.4 -7.9199998,11.71 5.6799998,4.31 9.6399998,-2.93 9.6399998,-2.93 a 19,19 0 0 0 9.13,-5.85 c 3.62,-4.48 3.79,-11.71 8.78,-17.91 4.99,-6.2 24.110005,-33.92 49.420005,-39.43 25.309996,-5.51 31.339996,3.79 38.399996,5.68 7.06,1.89 38.91,10.33 45.29,13.26 6.38,2.93 53.89,5.68 63.19,3.1 4.14,-1.15 5.3,0.85 8.18,3.25 a 18.33,18.33 0 0 0 7.24,3.47 46,46 0 0 0 6.82,1.12 c 2.72,0.29 5.27,-0.65 8,-0.84 a 6.12,6.12 0 0 0 1.88,-0.3 c 1.43,-0.57 1.61,-2.33 3,-2.84 a 6.7,6.7 0 0 1 2.35,0.11 l 4.78,0.32 36.15,2.44 26,19.11 c 8.44,6.2 23.12,11.66 31.17,7.4 8.05,-4.26 8.4,-13.58 14.61,-21.84 6.21,-8.26 16.74,-21.09 28.1,-27.29 11.36,-6.2 30.33,-9.62 31.87,-10.53 1.34,-0.78 0.72,-3.26 0.53,-3.9 l 2.82,-0.79 c 2.56,0.34 5.61,2.25 7,3.13 7.67,4.9 26,21.38 28.38,23.4 4.57,4 19.38,19.47 20.84,20.21 5,2.52 11.58,6.55 16.84,4.63 4,-1.46 7.36,-6.87 6.1,-11.37 -0.53,-1.9 -0.91,-4.77 -1.73,-6.56 l -14.86,-32.19 23.59,-32.369998 c 3.34,-4.58 6.74,-9.3 8.24,-14.77 1.5,-5.47 0.66,-11.92 -3.5,-15.77 z"
     class="cls-5" />
  <g
     transform="translate(-0.04766079,-117.48785)"
     id="layer2">
    <g
       id="g1203">
      <path
         style="fill:#79cbc2"
         class="cls-6"
         d="m 688.33,246.09 c -4.91,-4.54 -10.46,-0.74 -16.38,2.38 -5.92,3.12 -29.28,23.48 -38.58,28 -19.78,9.52 -17.47,6.75 -39.42,6.83 a 69.71,69.71 0 0 1 -7.23,-0.36 v -0.83 a 6.25,6.25 0 0 0 4.18,-1.79 l -19.86,-16.1 a 29,29 0 0 1 -8.6,-9.5 l -8.65,-14 c -3.8,-6.14 -5.91,-9 -6.68,-16.13 a 7.2,7.2 0 0 1 0.12,-2.76 13.13,13.13 0 0 1 1,-2.11 21.84,21.84 0 0 0 1.5,-4.58 c 1,-4.12 1.82,-8.43 0.91,-12.57 -0.91,-4.14 -3.94,-8.09 -8.12,-8.81 -3.2,-0.55 -8.34,-0.49 -11.3,0.84 -6.87,3.1 -15.87,7 -22.38,10.85 -3.24,1.89 -13.9,6.55 -17.25,7.4 -3.14,0.79 -9.46,2.58 -13.46,2.76 v 0 a 66.48,66.48 0 0 0 -7.81,-1.23 c -13.8,-1.57 -89.42,4.21 -103.31,4.48 -21.53,0.42 -76.45,9.64 -92.64,19.11 0,0 -14.81,8.78 -26,22.56 a 242.52,242.52 0 0 1 -21.18,23.59 c -7.75,7.92 -20,13.77 -33.75,31 -13.75,17.23 -28.07,36.85 -30.13,44.77 -2.06,7.92 4.48,3.44 4.48,3.44 l 3.44,5 -3.23,2.9 c 0,0 -13.6,7.4 -7.92,11.71 5.68,4.31 9.64,-2.93 9.64,-2.93 a 19,19 0 0 0 9.13,-5.85 c 3.62,-4.48 3.79,-11.71 8.78,-17.91 4.99,-6.2 24.11,-33.92 49.42,-39.43 25.31,-5.51 31.34,3.79 38.4,5.68 7.06,1.89 38.91,10.33 45.29,13.26 6.38,2.93 53.89,5.68 63.19,3.1 4.14,-1.15 5.3,0.85 8.18,3.25 a 18.33,18.33 0 0 0 7.24,3.47 46,46 0 0 0 6.82,1.12 c 2.72,0.29 5.27,-0.65 8,-0.84 a 6.12,6.12 0 0 0 1.88,-0.3 c 1.43,-0.57 1.61,-2.33 3,-2.84 a 6.7,6.7 0 0 1 2.35,0.11 l 4.78,0.32 36.15,2.44 26,19.11 c 8.44,6.2 23.12,11.66 31.17,7.4 8.05,-4.26 8.4,-13.58 14.61,-21.84 6.21,-8.26 16.74,-21.09 28.1,-27.29 11.36,-6.2 30.33,-9.62 31.87,-10.53 1.34,-0.78 0.72,-3.26 0.53,-3.9 l 2.82,-0.79 c 2.56,0.34 5.61,2.25 7,3.13 7.67,4.9 26,21.38 28.38,23.4 4.57,4 19.38,19.47 20.84,20.21 5,2.52 11.58,6.55 16.84,4.63 4,-1.46 7.36,-6.87 6.1,-11.37 -0.53,-1.9 -0.91,-4.77 -1.73,-6.56 L 660,309 683.59,276.63 c 3.34,-4.58 6.74,-9.3 8.24,-14.77 1.5,-5.47 0.66,-11.92 -3.5,-15.77 z"
         transform="translate(-155.36,-72.58)"
         id="path18" />
      <path
         style="fill:none;stroke:#115552;stroke-width:1.20000005px;stroke-miterlimit:10"
         class="cls-7"
         d="m 660.24,309 23.59,-32.37 c 3.34,-4.58 6.74,-9.3 8.24,-14.77 1.5,-5.47 0.68,-11.94 -3.49,-15.79 -4.91,-4.54 -10.46,-0.74 -16.38,2.38 -5.92,3.12 -29.28,23.48 -38.58,28 -19.78,9.52 -17.47,6.75 -39.42,6.83 -21.95,0.08 -41.6,-10.21 -57.85,-25 -6.37,-5.78 -13.78,-12.27 -20.1,-18.09 -25.19,-23.2 -35.31,-24.64 -45.67,-25.81 -13.8,-1.57 -89.42,4.21 -103.31,4.48 -21.53,0.42 -76.45,9.64 -92.64,19.11 0,0 -14.81,8.78 -26,22.56 a 242.52,242.52 0 0 1 -21.18,23.59 c -7.75,7.92 -20,13.77 -33.75,31 -13.75,17.23 -28.07,36.88 -30.14,44.78 -2.07,7.9 4.48,3.44 4.48,3.44 l 3.44,5 -3.27,2.93 c 0,0 -13.6,7.4 -7.92,11.71 5.68,4.31 9.64,-2.93 9.64,-2.93 a 19,19 0 0 0 9.13,-5.85 c 3.62,-4.48 3.79,-11.71 8.78,-17.91 4.99,-6.2 24.11,-33.92 49.42,-39.43 25.31,-5.51 31.34,3.79 38.4,5.68 7.06,1.89 38.91,10.33 45.29,13.26 6.38,2.93 53.89,5.68 63.19,3.1 4.14,-1.15 5.3,0.85 8.18,3.25 a 18.33,18.33 0 0 0 7.24,3.47 46,46 0 0 0 6.82,1.12 c 2.72,0.29 5.27,-0.65 8,-0.84 a 6.12,6.12 0 0 0 1.88,-0.3 c 1.43,-0.57 1.61,-2.33 3,-2.84 a 6.7,6.7 0 0 1 2.35,0.11 l 4.78,0.32 36.15,2.44 26,19.11 c 8.44,6.2 23.12,11.66 31.17,7.4 8.05,-4.26 8.4,-13.58 14.61,-21.84 6.21,-8.26 16.68,-21.11 28.03,-27.3 11.35,-6.19 30.33,-9.62 31.87,-10.53 1.54,-0.91 0.49,-4.05 0.49,-4.05 2.51,-2.14 7.87,1.23 9.85,2.5 7.67,4.9 26,21.38 28.38,23.4 4.57,4 19.38,19.47 20.84,20.21 5,2.52 11.58,6.55 16.84,4.63 4,-1.46 7.36,-6.87 6.1,-11.37 -0.53,-1.9 -0.91,-4.77 -1.73,-6.56 z"
         transform="translate(-155.36,-72.58)"
         id="path20" />
      <path
         style="fill:none;stroke:#115552;stroke-width:1.20000005px;stroke-miterlimit:10"
         class="cls-7"
         d="m 586.91,282.1 a 6.25,6.25 0 0 0 4.25,-1.79 L 571.3,264.2 a 29,29 0 0 1 -8.6,-9.5 l -8.65,-14 c -3.8,-6.14 -5.91,-9 -6.68,-16.13 a 7.2,7.2 0 0 1 0.12,-2.76 13.13,13.13 0 0 1 1,-2.11 21.84,21.84 0 0 0 1.5,-4.58 c 1,-4.12 1.82,-8.43 0.91,-12.57 -0.91,-4.14 -3.94,-8.09 -8.12,-8.81 -3.2,-0.55 -8.34,-0.49 -11.3,0.84 -6.87,3.1 -15.87,7 -22.38,10.85 -3.24,1.89 -13.9,6.55 -17.25,7.4 -3.14,0.79 -9.46,2.58 -13.46,2.76"
         transform="translate(-155.36,-72.58)"
         id="path22" />
      <ellipse
         style="fill:#fcfcfc;stroke:#115552;stroke-width:1.20000005px;stroke-miterlimit:10"
         class="cls-8"
         cx="105.57"
         cy="202.09"
         rx="9.8999996"
         ry="11.54"
         id="ellipse24" />
      <ellipse
         style="fill:#136d6d"
         class="cls-9"
         cx="104.97"
         cy="202"
         rx="3.96"
         ry="4.3899999"
         id="ellipse26" />
      <path
         style="fill:none;stroke:#115552;stroke-width:1.20000005px;stroke-miterlimit:10"
         class="cls-7"
         d="m 327.82,292.57 a 229.12,229.12 0 0 1 22.73,-21.7 151.3,151.3 0 0 1 30.82,-19.8 h 6.9 c 0,0 1.71,-0.73 3.95,8.92 C 394.46,269.64 390,280 390,280 l 0.69,7.23 c 0,0 -4,14.46 -13.09,20.49 -9.09,6.03 -15.67,7.92 -21.18,6.89 -5.51,-1.03 -19.42,-5.85 -19.42,-5.85 a 13.38,13.38 0 0 0 -0.86,-9.47 c -2.46,-4.99 -8.32,-6.72 -8.32,-6.72 z"
         transform="translate(-155.36,-72.58)"
         id="path28" />
      <path
         style="fill:none;stroke:#115552;stroke-width:1.20000005px;stroke-miterlimit:10"
         class="cls-7"
         d="m 597.59,307.78 c 0,0 -4.66,-3.4 -23.41,-3.4 -18.75,0 -69.81,25.13 -69.81,25.13 0,0 -23.14,11.55 -38.7,15.16 a 13.24,13.24 0 0 0 -3.19,0.94"
         transform="translate(-155.36,-72.58)"
         id="path30" />
      <path
         style="fill:none;stroke:#115552;stroke-width:1.20000005px;stroke-miterlimit:10"
         class="cls-7"
         d="m 647.92,306.55 c 4.72,1 7.82,7.39 12.56,9.17"
         transform="translate(-155.36,-72.58)"
         id="path32" />
      <path
         style="fill:none;stroke:#115552;stroke-width:1.20000005px;stroke-miterlimit:10"
         class="cls-7"
         d="m 648.35,310.63 c 3.4,1.56 8.29,8.84 13.65,9.84"
         transform="translate(-155.36,-72.58)"
         id="path34" />
      <path
         style="fill:none;stroke:#115552;stroke-width:1.20000005px;stroke-miterlimit:10"
         class="cls-7"
         d="m 649.36,316 c 6.1,2.95 8.21,8.42 15.58,10.74"
         transform="translate(-155.36,-72.58)"
         id="path36" />
      <path
         style="fill:none;stroke:#115552;stroke-width:1.20000005px;stroke-miterlimit:10"
         class="cls-7"
         d="m 668.28,259.16 c 6.69,-4.34 11.14,-11.85 18,-10.82"
         transform="translate(-155.36,-72.58)"
         id="path38" />
      <path
         style="fill:none;stroke:#115552;stroke-width:1.20000005px;stroke-miterlimit:10"
         class="cls-7"
         d="m 665.61,269.24 c 8.42,-4.17 20.21,-13.91 24,-11.87"
         transform="translate(-155.36,-72.58)"
         id="path40" />
      <path
         style="fill:none;stroke:#115552;stroke-width:1.20000005px;stroke-miterlimit:10"
         class="cls-7"
         d="m 661.15,279.07 c 9.65,-2.85 19,-11.52 25.33,-10.82"
         transform="translate(-155.36,-72.58)"
         id="path42" />
      <path
         style="fill:none;stroke:#115552;stroke-width:1.20000005px;stroke-miterlimit:10"
         class="cls-7"
         d="m 658.39,284.28 c 8.63,-2.53 18.4,-10 23.43,-10"
         transform="translate(-155.36,-72.58)"
         id="path44" />
      <path
         style="fill:none;stroke:#115552;stroke-width:1.20000005px;stroke-miterlimit:10"
         class="cls-7"
         d="m 655.44,289.13 c 8.84,-2.11 16.36,-7.92 22.46,-9.2"
         transform="translate(-155.36,-72.58)"
         id="path46" />
      <path
         style="fill:none;stroke:#115552;stroke-width:1.20000005px;stroke-miterlimit:10"
         class="cls-7"
         d="m 650.84,300.51 c 5,-0.63 10.74,-3.52 15.72,-3.86"
         transform="translate(-155.36,-72.58)"
         id="path48" />
      <path
         style="fill:none;stroke:#115552;stroke-width:1.20000005px;stroke-miterlimit:10"
         class="cls-7"
         d="m 651,303.24 c 3.12,-0.23 7,-1.49 10.19,-0.93"
         transform="translate(-155.36,-72.58)"
         id="path50" />
      <path
         style="fill:none;stroke:#115552;stroke-width:1.20000005px;stroke-miterlimit:10"
         class="cls-7"
         d="m 650.69,303.66 c 2.8,0.89 3.3,3.71 6.92,5.21"
         transform="translate(-155.36,-72.58)"
         id="path52" />
      <path
         style="fill:none;stroke:#115552;stroke-width:1.20000005px;stroke-miterlimit:10"
         class="cls-7"
         d="m 652.16,322.69 c 6.72,2.6 9.87,8.5 16.11,10.61"
         transform="translate(-155.36,-72.58)"
         id="path54" />
      <path
         style="fill:none;stroke:#115552;stroke-width:1.20000005px;stroke-miterlimit:10"
         class="cls-7"
         d="m 652.73,327.12 c 4.84,2.11 14.46,11.31 18.31,12.21"
         transform="translate(-155.36,-72.58)"
         id="path56" />
      <path
         style="fill:none;stroke:#115552;stroke-width:1.20000005px;stroke-miterlimit:10"
         class="cls-7"
         d="m 653.69,331.3 c 5.68,3.37 12.1,11.22 19.68,14.59"
         transform="translate(-155.36,-72.58)"
         id="path58" />
      <path
         style="fill:none;stroke:#115552;stroke-width:1.20000005px;stroke-miterlimit:10"
         class="cls-7"
         d="m 654.7,336.3 c 3.05,2 10.56,10.46 18,15.14"
         transform="translate(-155.36,-72.58)"
         id="path60" />
      <path
         style="fill:none;stroke:#115552;stroke-width:1.20000005px;stroke-miterlimit:10"
         class="cls-7"
         d="m 655.28,341.42 c 5.25,4.65 9.24,10.58 14.08,12.69"
         transform="translate(-155.36,-72.58)"
         id="path62" />
      <path
         style="fill:none;stroke:#115552;stroke-width:1.20000005px;stroke-miterlimit:10"
         class="cls-7"
         d="m 656.6,348.23 c 2.84,2.87 5.26,5.61 8.22,6.88"
         transform="translate(-155.36,-72.58)"
         id="path64" />
      <path
         style="fill:none;stroke:#115552;stroke-width:1.20000005px;stroke-miterlimit:10"
         class="cls-7"
         d="m 549.74,208.53 a 139.21,139.21 0 0 1 -16.31,12.12 c -9.57,6.44 -15,8 -22.27,10.93"
         transform="translate(-155.36,-72.58)"
         id="path66" />
      <path
         style="fill:none;stroke:#115552;stroke-width:1.20000005px;stroke-miterlimit:10"
         class="cls-7"
         d="m 548.32,214.85 c -6,6.11 -16.2,11.34 -20.09,13.65 -4.15,2.47 -9.48,4.4 -13.66,6"
         transform="translate(-155.36,-72.58)"
         id="path68" />
      <path
         style="fill:none;stroke:#115552;stroke-width:1.20000005px;stroke-miterlimit:10"
         class="cls-7"
         d="m 546.47,221.8 c -1.09,1.63 -3.86,3.36 -5.51,4.42 a 171.23,171.23 0 0 1 -23,12.64"
         transform="translate(-155.36,-72.58)"
         id="path70" />
      <path
         style="fill:none;stroke:#115552;stroke-width:1.20000005px;stroke-miterlimit:10"
         class="cls-7"
         d="m 545.48,228.16 c -8,7.18 -17.09,9.91 -24.52,13.9"
         transform="translate(-155.36,-72.58)"
         id="path72" />
      <path
         style="fill:none;stroke:#115552;stroke-width:1.20000005px;stroke-miterlimit:10"
         class="cls-7"
         d="m 546.85,232.76 c -7.84,6.66 -19.17,9.09 -22.78,12.26"
         transform="translate(-155.36,-72.58)"
         id="path74" />
      <path
         style="fill:none;stroke:#115552;stroke-width:1.20000005px;stroke-miterlimit:10"
         class="cls-7"
         d="m 548.1,236.35 c -2.13,1.75 -5.19,4.44 -7.74,5.5 -3.77,1.56 -9.83,3.67 -13.5,5.45"
         transform="translate(-155.36,-72.58)"
         id="path76" />
      <path
         style="fill:none;stroke:#115552;stroke-width:1.20000005px;stroke-miterlimit:10"
         class="cls-7"
         d="m 550.19,240.28 a 33.57,33.57 0 0 1 -7.55,5.42 75.23,75.23 0 0 1 -12.37,4.62"
         transform="translate(-155.36,-72.58)"
         id="path78" />
      <path
         style="fill:none;stroke:#115552;stroke-width:1.20000005px;stroke-miterlimit:10"
         class="cls-7"
         d="m 573.83,269.7 c -3.75,0.18 -11.39,3.64 -14.8,2.08"
         transform="translate(-155.36,-72.58)"
         id="path80" />
      <path
         style="fill:none;stroke:#115552;stroke-width:1.20000005px;stroke-miterlimit:10"
         class="cls-7"
         d="m 569.8,266.81 c -5.32,1.55 -11.23,3 -16.42,2.24"
         transform="translate(-155.36,-72.58)"
         id="path82" />
      <path
         style="fill:none;stroke:#115552;stroke-width:1.20000005px;stroke-miterlimit:10"
         class="cls-7"
         d="m 565.42,263.37 c -5.76,2 -10.31,3.25 -15.58,2.66"
         transform="translate(-155.36,-72.58)"
         id="path84" />
      <path
         style="fill:none;stroke:#115552;stroke-width:1.20000005px;stroke-miterlimit:10"
         class="cls-7"
         d="m 562.87,259.44 a 32.85,32.85 0 0 1 -16.21,3.92"
         transform="translate(-155.36,-72.58)"
         id="path86" />
      <path
         style="fill:none;stroke:#115552;stroke-width:1.20000005px;stroke-miterlimit:10"
         class="cls-7"
         d="m 560.44,255.8 c -1.83,1.6 -11.41,4.45 -17.67,4.85"
         transform="translate(-155.36,-72.58)"
         id="path88" />
      <path
         style="fill:none;stroke:#115552;stroke-width:1.20000005px;stroke-miterlimit:10"
         class="cls-7"
         d="m 557.86,252.06 a 41,41 0 0 1 -17.68,6"
         transform="translate(-155.36,-72.58)"
         id="path90" />
      <path
         style="fill:none;stroke:#115552;stroke-width:1.20000005px;stroke-miterlimit:10"
         class="cls-7"
         d="m 555.39,248.17 a 33.23,33.23 0 0 1 -18,7.48"
         transform="translate(-155.36,-72.58)"
         id="path92" />
      <path
         style="fill:none;stroke:#115552;stroke-width:1.20000005px;stroke-miterlimit:10"
         class="cls-7"
         d="m 553.11,244.47 a 48.7,48.7 0 0 1 -19.33,9.19"
         transform="translate(-155.36,-72.58)"
         id="path94" />
      <path
         style="fill:none;stroke:#115552;stroke-width:1.20000005px;stroke-miterlimit:10"
         class="cls-7"
         d="m 579.16,306.17 c 3.84,0.36 9.68,3.42 12.71,3.55"
         transform="translate(-155.36,-72.58)"
         id="path96" />
      <path
         style="fill:none;stroke:#115552;stroke-width:1.20000005px;stroke-miterlimit:10"
         class="cls-7"
         d="m 571.85,306.82 c 4.82,1.11 7.79,3.46 15.63,4.78"
         transform="translate(-155.36,-72.58)"
         id="path98" />
      <path
         style="fill:none;stroke:#115552;stroke-width:1.20000005px;stroke-miterlimit:10"
         class="cls-7"
         d="m 566,307.83 c 4,0.43 10.4,4.73 16.2,5.23"
         transform="translate(-155.36,-72.58)"
         id="path100" />
      <path
         style="fill:none;stroke:#115552;stroke-width:1.20000005px;stroke-miterlimit:10"
         class="cls-7"
         d="m 561.21,309.06 c 3.4,0.32 9.41,4.92 15.24,5.86"
         transform="translate(-155.36,-72.58)"
         id="path102" />
      <path
         style="fill:none;stroke:#115552;stroke-width:1.20000005px;stroke-miterlimit:10"
         class="cls-7"
         d="m 556.22,311.16 c 5,1.12 9,4.85 13.82,5.21"
         transform="translate(-155.36,-72.58)"
         id="path104" />
      <path
         style="fill:none;stroke:#115552;stroke-width:1.20000005px;stroke-miterlimit:10"
         class="cls-7"
         d="m 550.86,313.33 c 6.74,1.12 8.06,4 14.4,5.43"
         transform="translate(-155.36,-72.58)"
         id="path106" />
      <path
         style="fill:none;stroke:#115552;stroke-width:1.20000005px;stroke-miterlimit:10"
         class="cls-7"
         d="m 546,315.5 c 4.85,0.8 9.91,5.57 14.76,5.85"
         transform="translate(-155.36,-72.58)"
         id="path108" />
      <path
         style="fill:none;stroke:#115552;stroke-width:1.20000005px;stroke-miterlimit:10"
         class="cls-7"
         d="m 534.94,319.63 c 7.7,1.92 10.88,7.38 17.08,7.6"
         transform="translate(-155.36,-72.58)"
         id="path110" />
      <path
         style="fill:none;stroke:#115552;stroke-width:1.20000005px;stroke-miterlimit:10"
         class="cls-7"
         d="m 531.25,322.16 c 8.54,2.61 12.66,8.61 17.3,8"
         transform="translate(-155.36,-72.58)"
         id="path112" />
      <path
         style="fill:none;stroke:#115552;stroke-width:1.20000005px;stroke-miterlimit:10"
         class="cls-7"
         d="m 472.39,346.22 c 10.43,10.24 19,17.26 29.35,22.81"
         transform="translate(-155.36,-72.58)"
         id="path114" />
      <path
         style="fill:none;stroke:#115552;stroke-width:1.20000005px;stroke-miterlimit:10"
         class="cls-7"
         d="m 477.26,344.67 c 7.42,7.2 24.24,23 33.94,26.66"
         transform="translate(-155.36,-72.58)"
         id="path116" />
      <path
         style="fill:none;stroke:#115552;stroke-width:1.20000005px;stroke-miterlimit:10"
         class="cls-7"
         d="m 482.47,343.37 c 6.68,7.19 20.69,20.83 34,27.05"
         transform="translate(-155.36,-72.58)"
         id="path118" />
      <path
         style="fill:none;stroke:#115552;stroke-width:1.20000005px;stroke-miterlimit:10"
         class="cls-7"
         d="m 487.39,341.49 c 6.3,7.53 20.77,21.57 33.3,26.82"
         transform="translate(-155.36,-72.58)"
         id="path120" />
      <path
         style="fill:none;stroke:#115552;stroke-width:1.20000005px;stroke-miterlimit:10"
         class="cls-7"
         d="m 492.39,339.32 c 8.42,10.35 17.51,18.82 30.54,25.4"
         transform="translate(-155.36,-72.58)"
         id="path122" />
      <path
         style="fill:none;stroke:#115552;stroke-width:1.20000005px;stroke-miterlimit:10"
         class="cls-7"
         d="m 496.8,337.43 c 4.64,7.53 17.17,18 28.37,23.09"
         transform="translate(-155.36,-72.58)"
         id="path124" />
      <path
         style="fill:none;stroke:#115552;stroke-width:1.20000005px;stroke-miterlimit:10"
         class="cls-7"
         d="m 500.85,335.77 c 4.05,4.34 14,16.57 25.94,20.58"
         transform="translate(-155.36,-72.58)"
         id="path126" />
      <path
         style="fill:none;stroke:#115552;stroke-width:1.20000005px;stroke-miterlimit:10"
         class="cls-7"
         d="M 527.5,323.55"
         transform="translate(-155.36,-72.58)"
         id="path128" />
      <path
         style="fill:none;stroke:#115552;stroke-width:1.20000005px;stroke-miterlimit:10"
         class="cls-7"
         d="m 522.78,325.71 c 6.08,2.24 12.59,9.19 18.45,10.86"
         transform="translate(-155.36,-72.58)"
         id="path130" />
      <path
         style="fill:none;stroke:#115552;stroke-width:1.20000005px;stroke-miterlimit:10"
         class="cls-7"
         d="m 526.33,323.76 c 6.73,1.45 15.5,10.21 18.89,9.84"
         transform="translate(-155.36,-72.58)"
         id="path132" />
      <path
         style="fill:none;stroke:#115552;stroke-width:1.20000005px;stroke-miterlimit:10"
         class="cls-7"
         d="m 518.87,327.16 c 4.92,2 12.27,10.25 19.25,12.66"
         transform="translate(-155.36,-72.58)"
         id="path134" />
      <path
         style="fill:none;stroke:#115552;stroke-width:1.20000005px;stroke-miterlimit:10"
         class="cls-7"
         d="m 515.4,328.82 c 4,2 13.68,12.16 20.29,14.12"
         transform="translate(-155.36,-72.58)"
         id="path136" />
      <path
         style="fill:none;stroke:#115552;stroke-width:1.20000005px;stroke-miterlimit:10"
         class="cls-7"
         d="m 512.22,330.49 c 5.2,3.67 11.29,11.64 21,15.34"
         transform="translate(-155.36,-72.58)"
         id="path138" />
      <path
         style="fill:none;stroke:#115552;stroke-width:1.20000005px;stroke-miterlimit:10"
         class="cls-7"
         d="m 509,332.22 c 4.2,3.76 12.54,13.25 21.64,17.15"
         transform="translate(-155.36,-72.58)"
         id="path140" />
      <path
         style="fill:none;stroke:#115552;stroke-width:1.20000005px;stroke-miterlimit:10"
         class="cls-7"
         d="m 505.05,334.25 c 4.34,5.21 15.2,15.13 23.69,18.6"
         transform="translate(-155.36,-72.58)"
         id="path142" />
      <path
         style="fill:none;stroke:#115552;stroke-width:1.20000005px;stroke-miterlimit:10"
         class="cls-7"
         d="m 419.19,342.74 c -1.27,-2.22 -4.42,-4.1 -6.77,-5.09 -3.8,-1.6 -16.75,-1.84 -21.34,-2.17 a 24.85,24.85 0 0 1 -7.61,-1.36"
         transform="translate(-155.36,-72.58)"
         id="path144" />
      <path
         style="fill:none;stroke:#115552;stroke-width:1.20000005px;stroke-miterlimit:10"
         class="cls-7"
         d="m 414.56,344.45 c -3.46,-3 -10.18,-4.55 -18,-4.47"
         transform="translate(-155.36,-72.58)"
         id="path146" />
      <path
         style="fill:none;stroke:#115552;stroke-width:1.20000005px;stroke-miterlimit:10"
         class="cls-7"
         d="m 410,345.38 c -1.17,-2.13 -8.17,-3.5 -13.31,-3.57"
         transform="translate(-155.36,-72.58)"
         id="path148" />
      <path
         style="fill:none;stroke:#115552;stroke-width:1.20000005px;stroke-miterlimit:10"
         class="cls-7"
         d="m 417.54,343.32 c -2.51,-3.88 -13.69,-6.19 -21.29,-5.06"
         transform="translate(-155.36,-72.58)"
         id="path150" />
      <path
         style="fill:none;stroke:#115552;stroke-width:1.20000005px;stroke-miterlimit:10"
         class="cls-7"
         d="m 651.44,293.74 c 8.84,-2.11 16,-7 22.14,-8.25"
         transform="translate(-155.36,-72.58)"
         id="path152" />
      <path
         style="fill:none;stroke:#115552;stroke-width:1.20000005px;stroke-miterlimit:10"
         class="cls-7"
         d="m 650.55,297.16 c 8.5,-2 12.73,-4.76 19.27,-6.13"
         transform="translate(-155.36,-72.58)"
         id="path154" />
      <path
         style="fill:none;stroke:#115552;stroke-width:1.20000005px;stroke-miterlimit:10"
         class="cls-7"
         d="m 663.71,274.11 c 6.49,-2 19.33,-13.05 25.44,-11.58"
         transform="translate(-155.36,-72.58)"
         id="path156" />
      <path
         style="fill:none;stroke:#115552;stroke-width:1.20000005px;stroke-miterlimit:10"
         class="cls-7"
         d="m 689.51,252.54 c -3.45,-0.73 -6.41,1.13 -9.57,2.69 -3.74,1.85 -7.14,5.47 -12.08,8.74"
         transform="translate(-155.36,-72.58)"
         id="path158" />
      <path
         style="fill:none;stroke:#115552;stroke-width:1.20000005px;stroke-miterlimit:10"
         class="cls-7"
         d="m 556.42,323.94 c -6.07,-0.1 -11.81,-6.12 -16.79,-6.73"
         transform="translate(-155.36,-72.58)"
         id="path160" />
      <path
         style="fill:none;stroke:#115552;stroke-width:1.20000005px;stroke-miterlimit:10"
         class="cls-7"
         d="m 543.76,196.19 c -6.88,-1.35 -19.78,5.06 -27.23,10.1 -7.45,5.04 -15,9.5 -27,11.37"
         transform="translate(-155.36,-72.58)"
         id="path162" />
      <path
         style="fill:none;stroke:#115552;stroke-width:1.20000005px;stroke-miterlimit:10"
         class="cls-7"
         d="m 548.17,200.67 c -5.37,0.35 -39.35,22.73 -45.48,24.76"
         transform="translate(-155.36,-72.58)"
         id="path164" />
      <path
         style="fill:none;stroke:#115552;stroke-width:1.20000005px;stroke-miterlimit:10"
         class="cls-7"
         d="m 549.44,204 c -3.74,2.28 -12.72,8.12 -20.57,12.94 -7.18,4.4 -14.74,9.13 -21.47,11.44"
         transform="translate(-155.36,-72.58)"
         id="path166" />
      <path
         style="fill:none;stroke:#115552;stroke-width:1.20000005px;stroke-miterlimit:10"
         class="cls-7"
         d="m 572.3,278.22 c 5.5,0.11 5.4,-1.08 11.52,-1.72"
         transform="translate(-155.36,-72.58)"
         id="path168" />
      <path
         style="fill:none;stroke:#115552;stroke-width:1.20000005px;stroke-miterlimit:10"
         class="cls-7"
         d="m 565.43,275.7 c 6.48,-0.67 7.59,-2.43 13.8,-2.54"
         transform="translate(-155.36,-72.58)"
         id="path170" />
      <path
         style="fill:none;stroke:#115552;stroke-width:1.20000005px;stroke-miterlimit:10"
         class="cls-7"
         d="m 637.93,296.25 c -3,-0.56 -5.73,1.47 -8.6,2.43 -4.75,1.58 -9.9,0.18 -14.73,-1.13 q -6.58,-1.78 -13.22,-3.34 a 68.33,68.33 0 0 0 -9.91,-1.76 c -2.85,-0.23 -5.73,-0.14 -8.59,-0.28 a 107.38,107.38 0 0 1 -12.57,-1.59 c -9.06,-1.51 -68.26,-10.14 -71.27,-10.59 -3.01,-0.45 -5.7,-1.13 -8.51,-1.84 -7.21,-1.8 -14.43,-3.6 -21.55,-5.72 -5.8,-1.72 -11.63,-3.67 -17.68,-3.8"
         transform="translate(-155.36,-72.58)"
         id="path172" />
      <path
         style="fill:none;stroke:#115552;stroke-width:1.20000005px;stroke-miterlimit:10"
         class="cls-7"
         d="m 388.94,255.54 c -11.93,-5.56 -44.25,27.28 -56.5,36"
         transform="translate(-155.36,-72.58)"
         id="path174" />
      <path
         style="fill:none;stroke:#115552;stroke-width:1.20000005px;stroke-miterlimit:10"
         class="cls-7"
         d="m 390.35,260.09 c -4.27,-1.09 -8.69,0.67 -12.75,2.36 -5.46,2.27 -10.28,6.24 -14.52,9.51 -9.74,7.5 -18.84,14.24 -28.32,20.75"
         transform="translate(-155.36,-72.58)"
         id="path176" />
      <path
         style="fill:none;stroke:#115552;stroke-width:1.20000005px;stroke-miterlimit:10"
         class="cls-7"
         d="m 340.71,308.16 c 8.63,2.26 12.34,-0.94 17.07,-1.47 4.43,-0.5 7.35,2.8 9.32,4.32"
         transform="translate(-155.36,-72.58)"
         id="path178" />
      <path
         style="fill:none;stroke:#115552;stroke-width:1.20000005px;stroke-miterlimit:10"
         class="cls-7"
         d="m 341.1,305.91 c 8,0.69 14.08,-3.64 20.6,-3.24 4.28,0.26 8.66,2.95 12.85,3.83"
         transform="translate(-155.36,-72.58)"
         id="path180" />
      <path
         style="fill:none;stroke:#115552;stroke-width:1.20000005px;stroke-miterlimit:10"
         class="cls-7"
         d="m 341.1,303.55 c 3.41,0.3 9.53,-1.83 12.85,-2.65 14.72,-3.63 21.42,-0.83 25.9,0.45"
         transform="translate(-155.36,-72.58)"
         id="path182" />
      <path
         style="fill:none;stroke:#115552;stroke-width:1.20000005px;stroke-miterlimit:10"
         class="cls-7"
         d="M 341.8,301.18"
         transform="translate(-155.36,-72.58)"
         id="path184" />
      <path
         style="fill:none;stroke:#115552;stroke-width:1.20000005px;stroke-miterlimit:10"
         class="cls-7"
         d="m 340.91,301.39 c 3.54,-0.55 13,-3.71 15.7,-4.51 4.66,-1.39 19.74,-4.31 28,-1"
         transform="translate(-155.36,-72.58)"
         id="path186" />
      <path
         style="fill:none;stroke:#115552;stroke-width:1.20000005px;stroke-miterlimit:10"
         class="cls-7"
         d="m 386,290.81 c -7.17,-2.17 -14.93,-1.69 -22.2,0.13 -7.27,1.82 -16.59,6.33 -23.36,8.59"
         transform="translate(-155.36,-72.58)"
         id="path188" />
      <path
         style="fill:none;stroke:#115552;stroke-width:1.20000005px;stroke-miterlimit:10"
         class="cls-7"
         d="m 388.47,285.83 c -10,-2.87 -20.62,0.19 -30.37,3.75 -6.27,2.29 -12.47,5.77 -18.57,8.47"
         transform="translate(-155.36,-72.58)"
         id="path190" />
      <path
         style="fill:none;stroke:#115552;stroke-width:1.20000005px;stroke-miterlimit:10"
         class="cls-7"
         d="M 368.93,282.23"
         transform="translate(-155.36,-72.58)"
         id="path192" />
      <path
         style="fill:none;stroke:#115552;stroke-width:1.20000005px;stroke-miterlimit:10"
         class="cls-7"
         d="m 388.69,278.73 c -5.24,-1.82 -9.05,-0.68 -14.35,1 C 362.8,283.34 350.66,290 339,296.88"
         transform="translate(-155.36,-72.58)"
         id="path194" />
      <path
         style="fill:none;stroke:#115552;stroke-width:1.20000005px;stroke-miterlimit:10"
         class="cls-7"
         d="m 390.3,273.11 c -8.68,-1.24 -13.68,-0.69 -21.82,4.15 -8.14,4.84 -22.48,13.15 -30.62,18.35"
         transform="translate(-155.36,-72.58)"
         id="path196" />
      <path
         style="fill:none;stroke:#115552;stroke-width:1.20000005px;stroke-miterlimit:10"
         class="cls-7"
         d="m 390.84,266.07 c -8.15,-1.14 -16.34,2.9 -23.25,7.36 -10.16,6.55 -20.11,13.15 -31,21.09"
         transform="translate(-155.36,-72.58)"
         id="path198" />
      <path
         style="fill:none;stroke:#115552;stroke-width:1.20000005px;stroke-miterlimit:10"
         class="cls-7"
         d="m 497.46,221.77 c 26.48,-10.25 36.05,-22.44 49.07,-23.26"
         transform="translate(-155.36,-72.58)"
         id="path200" />
    </g>
  </g>
</svg>
